<svg xmlns="http://www.w3.org/2000/svg" viewBox="0 0 390 150" width="390" height="150">
  <g transform="translate(0.00,125.00) scale(0.120000,-0.120000)">
    <path d="M66 0V730H315Q392 730 449.5 701.0Q507 672 538.5 620.0Q570 568 570 498Q570 429 538.0 376.5Q506 324 449.0 295.0Q392 266 315 266H216V0ZM216 396H315Q363 396 391.5 425.0Q420 454 420 498Q420 542 391.5 571.0Q363 600 315 600H216Z" fill="#ffffff"/>
  </g>
  <g transform="translate(72.00,125.00) scale(0.120000,-0.120000)">
    <path d="M70 0V135H252V415H90V550H402V135H560V0ZM320 637Q279 637 254.5 658.0Q230 679 230 715Q230 751 254.5 772.0Q279 793 320 793Q361 793 385.5 772.0Q410 751 410 715Q410 679 385.5 658.0Q361 637 320 637Z" fill="#ffffff"/>
  </g>
  <g transform="translate(144.00,125.00) scale(0.120000,-0.120000)">
    <path d="M26 0 216 285 39 550H206L274 440Q282 427 289.0 411.0Q296 395 300 385Q304 395 311.0 411.0Q318 427 326 440L394 550H561L385 285L574 0H407L327 130Q319 144 311.5 159.5Q304 175 300 185Q296 175 289.0 159.5Q282 144 274 130L193 0Z" fill="#ffffff"/>
  </g>
  <g transform="translate(216.00,125.00) scale(0.120000,-0.120000)">
    <path d="M301 -10Q228 -10 173.5 17.5Q119 45 89.5 94.5Q60 144 60 210V340Q60 406 89.5 455.5Q119 505 173.5 532.5Q228 560 301 560Q374 560 427.5 532.5Q481 505 510.5 455.5Q540 406 540 340V238H203V210Q203 158 227.5 134.0Q252 110 301 110Q333 110 357.0 120.0Q381 130 385 150H532Q516 78 453.0 34.0Q390 -10 301 -10ZM203 340V327L397 329V342Q397 393 373.5 421.0Q350 449 301 449Q252 449 227.5 420.0Q203 391 203 340Z" fill="#ffffff"/>
  </g>
  <g transform="translate(288.00,125.00) scale(0.120000,-0.120000)">
    <path d="M395 0Q337 0 293.0 24.5Q249 49 224.5 93.0Q200 137 200 195V595H25V730H350V200Q350 171 366.5 153.0Q383 135 410 135H565V0Z" fill="#ffffff"/>
  </g>
  <circle cx="372" cy="132" r="14" fill="#10b981"/>
</svg>